<svg viewBox="0 0 316 78" fill="currentColor" xmlns="http://www.w3.org/2000/svg">
  <path d="M35.1 77.4C44.8 77.4 53.1 73.7 59.4 66.4L50 55.2C46.5 59 41.8 62 35.8 62C25.3 62 18.5 53.4 18.5 38.6C18.5 24.1 26.4 15.5 36 15.5C41.3 15.5 45.2 17.9 49 21.3L58.3 9.9C53.2 4.69999 45.4 0.199998 35.7 0.199998C16.8 0.199998 0.2 14.4 0.2 39.2C0.2 64.4 16.2 77.4 35.1 77.4ZM93.5992 77.4C107.999 77.4 121.399 66.4 121.399 47.5C121.399 28.7 107.999 17.7 93.5992 17.7C79.0992 17.7 65.6992 28.7 65.6992 47.5C65.6992 66.4 79.0992 77.4 93.5992 77.4ZM93.5992 63C86.8992 63 83.8992 57 83.8992 47.5C83.8992 38.1 86.8992 32.1 93.5992 32.1C100.199 32.1 103.199 38.1 103.199 47.5C103.199 57 100.199 63 93.5992 63ZM133.971 76H156.371C178.071 76 193.071 64.3 193.071 38.4C193.071 12.5 178.071 1.49999 155.371 1.49999H133.971V76ZM151.871 61.6V15.8H154.271C166.271 15.8 174.771 20.7 174.771 38.4C174.771 56.1 166.271 61.6 154.271 61.6H151.871ZM231.223 77.4C237.823 77.4 245.623 75.1 251.523 70.9L245.623 60.2C241.523 62.6 237.723 63.8 233.623 63.8C226.423 63.8 221.023 60.6 219.423 52.8H252.823C253.223 51.4 253.623 48.3 253.623 45.1C253.623 29.6 245.623 17.7 229.223 17.7C215.523 17.7 202.223 29.1 202.223 47.5C202.223 66.4 214.823 77.4 231.223 77.4ZM219.123 41.1C220.323 34.4 224.623 31.3 229.523 31.3C236.023 31.3 238.523 35.5 238.523 41.1H219.123ZM276.433 76H297.033L315.433 19.1H298.333L291.333 45.3C289.933 50.9 288.533 56.8 287.133 62.8H286.633C285.133 56.8 283.833 50.9 282.333 45.3L275.433 19.1H257.533L276.433 76Z" />
</svg>
